<svg xmlns="http://www.w3.org/2000/svg" width="112" height="30" viewBox="0 0 112 30">
  <path
    d="M25.87,1.34A.77.77,0,0,0,25.38,1c-.23-.05-.52.07-1.1.29L15.57,4.75a3.78,3.78,0,0,0-1.06.52,1.69,1.69,0,0,0-.41.61A3.41,3.41,0,0,0,14,7.05V28.48a.52.52,0,0,0,.52.52A11.41,11.41,0,0,0,26,17.65V2.45C26,1.84,26,1.53,25.87,1.34Z"
    style="fill:#1b22e6"
  />
  <path
    d="M11.38,7c-.23,0-.52.07-1.1.29L1.57,10.68a3.83,3.83,0,0,0-1.06.51,1.61,1.61,0,0,0-.41.59A3.34,3.34,0,0,0,0,12.93v4.94A11.3,11.3,0,0,0,11.48,29a.51.51,0,0,0,.52-.51V8.43a2.18,2.18,0,0,0-.13-1.1A.79.79,0,0,0,11.38,7Z"
    style="fill:#1b22e6"
  />
  <path
    d="M33,6h3.89v7h7.22V6H48V24H44.11V16.67H36.89V24H33Z"
    style="fill:#131b39"
  />
  <path
    d="M55,8.12a2.06,2.06,0,0,1-.17.81,2.16,2.16,0,0,1-.48.67,2.29,2.29,0,0,1-.71.46,2.29,2.29,0,0,1-1.78,0,2.29,2.29,0,0,1-.71-.46,2.16,2.16,0,0,1-.48-.67,2,2,0,0,1,0-1.62,2.16,2.16,0,0,1,.48-.67,2.31,2.31,0,0,1,.71-.47,2.41,2.41,0,0,1,1.78,0,2.31,2.31,0,0,1,.71.47,2.16,2.16,0,0,1,.48.67A2.06,2.06,0,0,1,55,8.12ZM50.82,24V11.68h3.86V24Z"
    style="fill:#131b39"
  />
  <path
    d="M65.5,14.94a2.26,2.26,0,0,0-1-.16,3,3,0,0,0-2.45,1.09,4.58,4.58,0,0,0-.87,3V24H57.5V11.28h3.7v2.09a4.19,4.19,0,0,1,1.47-1.74A3.86,3.86,0,0,1,64.86,11a2.69,2.69,0,0,1,.4,0,.67.67,0,0,1,.24.05Z"
    style="fill:#131b39"
  />
  <path
    d="M79.56,21.1a5.92,5.92,0,0,1-2.29,2.49,6.67,6.67,0,0,1-3.57.91A7.22,7.22,0,0,1,71,24a6.26,6.26,0,0,1-2.11-1.39,6.36,6.36,0,0,1-1.38-2.14,7.33,7.33,0,0,1-.5-2.73,7.19,7.19,0,0,1,.5-2.69,6.57,6.57,0,0,1,1.38-2.14A6.29,6.29,0,0,1,71,11.51a6.93,6.93,0,0,1,5.22,0,5.78,5.78,0,0,1,2,1.41,6.68,6.68,0,0,1,1.32,2.17A7.92,7.92,0,0,1,80,17.85c0,.23,0,.42,0,.58a2.6,2.6,0,0,1,0,.36H70.66a2.57,2.57,0,0,0,.31,1,2.74,2.74,0,0,0,.67.81,3.23,3.23,0,0,0,1,.55,3.16,3.16,0,0,0,1.11.19A2.93,2.93,0,0,0,75.37,21a3.62,3.62,0,0,0,1-1.14Zm-3.22-4.78a2.57,2.57,0,0,0-.9-1.7A2.83,2.83,0,0,0,73.53,14a2.79,2.79,0,0,0-1.92.73,2.8,2.8,0,0,0-.63.75,2.18,2.18,0,0,0-.29.88Z"
    style="fill:#131b39"
  />
  <path
    d="M90.28,11H94V23.67H90.28V22.05a4.06,4.06,0,0,1-1.49,1.42,4.37,4.37,0,0,1-2.18.53,4.31,4.31,0,0,1-3.39-1.38A5.58,5.58,0,0,1,82,18.82V11h3.72v6.92a3,3,0,0,0,.57,1.95,2,2,0,0,0,1.65.69,2.11,2.11,0,0,0,1.7-.75,3.18,3.18,0,0,0,.64-2.12Z"
    style="fill:#131b39"
  />
  <path
    d="M97,29.43V11.31h3.77V13a4.32,4.32,0,0,1,1.78-1.49,5.41,5.41,0,0,1,2.37-.52,5.48,5.48,0,0,1,2.4.52,6.1,6.1,0,0,1,1.93,1.4A6.64,6.64,0,0,1,110.53,15a7.41,7.41,0,0,1,.47,2.64,7.33,7.33,0,0,1-.47,2.64,6.81,6.81,0,0,1-1.28,2.11,6,6,0,0,1-1.93,1.42,5.48,5.48,0,0,1-2.4.52,5.84,5.84,0,0,1-2.37-.48,4,4,0,0,1-1.78-1.48v7Zm10.23-11.75a3.1,3.1,0,0,0-.26-1.29,3.34,3.34,0,0,0-.7-1,3.15,3.15,0,0,0-1-.71,3.36,3.36,0,0,0-2.59,0,3.15,3.15,0,0,0-1,.71,3.34,3.34,0,0,0-.7,1,3.1,3.1,0,0,0-.26,1.29A3,3,0,0,0,100.9,19a3.27,3.27,0,0,0,.7,1.05,3.15,3.15,0,0,0,1,.71,3.36,3.36,0,0,0,2.59,0,3.15,3.15,0,0,0,1-.71A3.27,3.27,0,0,0,107,19,3,3,0,0,0,107.23,17.68Z"
    style="fill:#131b39"
  />
</svg>
